<?xml version="1.0" encoding="UTF-8"?>
<svg xmlns="http://www.w3.org/2000/svg" xmlns:xlink="http://www.w3.org/1999/xlink" width="512px" height="512px" viewBox="0 0 512 512" version="1.1">
<g id="surface1">
<path style=" stroke:none;fill-rule:nonzero;fill:rgb(86.274511%,46.666667%,20.392157%);fill-opacity:1;" d="M 0 108.613281 C 0 48.628906 48.628906 0 108.613281 0 L 403.386719 0 C 463.371094 0 512 48.628906 512 108.613281 L 512 403.386719 C 512 463.371094 463.371094 512 403.386719 512 L 108.613281 512 C 48.628906 512 0 463.371094 0 403.386719 Z M 0 108.613281 "/>
<path style=" stroke:none;fill-rule:nonzero;fill:rgb(20.392157%,20.392157%,20.392157%);fill-opacity:1;" d="M 256 46.546875 C 371.617188 46.546875 465.453125 140.382812 465.453125 256 C 465.453125 371.617188 371.617188 465.453125 256 465.453125 C 140.382812 465.453125 46.546875 371.617188 46.546875 256 C 46.546875 140.382812 140.382812 46.546875 256 46.546875 Z M 256 46.546875 "/>
<path style=" stroke:none;fill-rule:nonzero;fill:rgb(6.666667%,6.666667%,6.666667%);fill-opacity:1;" d="M 407.636719 166.703125 C 411.753906 164.386719 416.664062 163.933594 421.136719 165.460938 C 425.605469 166.984375 429.21875 170.339844 431.0625 174.691406 C 453.105469 226.648438 453.105469 285.332031 431.0625 337.292969 L 431.03125 337.363281 C 429.195312 341.695312 425.597656 345.039062 421.144531 346.554688 C 416.691406 348.074219 411.804688 347.625 407.703125 345.316406 L 318.964844 295.40625 C 304.726562 287.398438 295.914062 272.328125 295.914062 255.992188 C 295.914062 239.652344 304.726562 224.585938 318.964844 216.578125 Z M 407.636719 166.703125 "/>
<path style=" stroke:none;fill-rule:nonzero;fill:rgb(74.509805%,74.509805%,74.509805%);fill-opacity:1;" d="M 384.402344 180.15625 L 387.300781 185.527344 C 411.566406 230.511719 411.089844 284.789062 386.039062 329.335938 L 384.3125 332.40625 L 318.929688 295.511719 C 304.703125 287.484375 295.917969 272.40625 295.945312 256.074219 C 295.976562 239.742188 304.816406 224.695312 319.066406 216.71875 Z M 384.402344 180.15625 "/>
<path style=" stroke:none;fill-rule:nonzero;fill:rgb(6.666667%,6.666667%,6.666667%);fill-opacity:1;" d="M 260.066406 433.78125 C 260.011719 438.503906 257.949219 442.984375 254.394531 446.09375 C 250.835938 449.203125 246.125 450.652344 241.4375 450.074219 C 185.417969 443.1875 134.59375 413.84375 100.617188 368.773438 L 100.570312 368.710938 C 97.738281 364.957031 96.640625 360.167969 97.554688 355.554688 C 98.464844 350.9375 101.300781 346.929688 105.347656 344.53125 L 192.941406 292.636719 C 206.996094 284.3125 224.453125 284.210938 238.601562 292.382812 C 252.75 300.550781 261.390625 315.714844 261.207031 332.054688 Z M 260.066406 433.78125 "/>
<path style=" stroke:none;fill-rule:nonzero;fill:rgb(74.509805%,74.509805%,74.509805%);fill-opacity:1;" d="M 260.03125 406.933594 L 253.929688 406.757812 C 202.84375 405.28125 156.074219 377.730469 130.019531 333.761719 L 128.226562 330.730469 L 192.867188 292.554688 C 206.933594 284.246094 224.382812 284.175781 238.511719 292.367188 C 252.644531 300.558594 261.253906 315.738281 261.035156 332.070312 Z M 260.03125 406.933594 "/>
<path style=" stroke:none;fill-rule:nonzero;fill:rgb(6.666667%,6.666667%,6.666667%);fill-opacity:1;" d="M 104.441406 170.363281 C 100.378906 167.957031 97.53125 163.929688 96.617188 159.296875 C 95.699219 154.660156 96.800781 149.855469 99.644531 146.085938 C 133.621094 101.011719 184.441406 71.671875 240.464844 64.78125 L 240.539062 64.773438 C 245.210938 64.199219 249.902344 65.640625 253.445312 68.738281 C 256.988281 71.835938 259.039062 76.296875 259.09375 81 L 260.238281 182.804688 C 260.421875 199.140625 251.777344 214.304688 237.628906 222.472656 C 223.480469 230.644531 206.027344 230.546875 191.96875 222.21875 Z M 104.441406 170.363281 "/>
<path style=" stroke:none;fill-rule:nonzero;fill:rgb(74.509805%,74.509805%,74.509805%);fill-opacity:1;" d="M 127.710938 183.757812 L 130.914062 178.5625 C 157.738281 135.058594 204.980469 108.332031 256.085938 107.75 L 259.605469 107.710938 L 260.347656 182.785156 C 260.507812 199.117188 251.84375 214.265625 237.6875 222.40625 C 223.527344 230.546875 206.078125 230.414062 192.042969 222.058594 Z M 127.710938 183.757812 "/>
</g>
</svg>
